<svg width="1529.15556640625px" height="260px" xmlns="http://www.w3.org/2000/svg" viewBox="-514.577783203125 -55 1529.15556640625 260" style="background: rgb(253, 253, 253);" preserveAspectRatio="xMidYMid"><defs><filter id="editing-jagged" x="-100%" y="-100%" width="300%" height="300%"><feTurbulence result="turb" baseFrequency="0.1" numOctaves="1" seed="1"></feTurbulence><feDisplacementMap in="SourceGraphic" in2="turb" scale="7"></feDisplacementMap></filter></defs><g filter="url(#editing-jagged)"><g transform="translate(-304.5119957923889, 145.68000411987305)"><path d="M1.06-0.76L1.06-0.76L20.22-100.32L20.22-100.32Q38.15-101.84 49.70-101.84L49.70-101.84L49.70-101.84Q61.26-101.84 68.70-100.85L68.70-100.85L68.70-100.85Q76.15-99.86 81.17-97.28L81.17-97.28L81.17-97.28Q91.20-92.42 91.20-79.04L91.20-79.04L91.20-79.04Q91.20-71.29 84.51-64.75L84.51-64.75L84.51-64.75Q78.28-58.82 71.44-57.46L71.44-57.46L71.44-57.46Q78.74-56.24 83.90-50.77L83.90-50.77L83.90-50.77Q89.38-44.99 89.38-36.02L89.38-36.02L89.38-36.02Q89.38-18.70 76.46-8.59L76.46-8.59L76.46-8.59Q63.54 1.52 38.15 1.52L38.15 1.52L38.15 1.52Q20.67 1.52 1.06-0.76ZM42.41-48.94L34.81-9.58L34.81-9.58Q36.18-9.42 36.48-9.42L36.48-9.42L37.85-9.42L37.85-9.42Q50.31-9.42 55.63-17.63L55.63-17.63L55.63-17.63Q59.58-24.02 59.58-35.72L59.58-35.72L59.58-35.72Q59.58-41.95 55.56-45.30L55.56-45.30L55.56-45.30Q51.53-48.64 42.41-48.94L42.41-48.94ZM65.51-78.89L65.51-78.89L65.51-78.89Q65.51-91.50 53.35-91.50L53.35-91.50L51.98-91.50L51.98-91.50Q51.38-91.50 50.46-91.35L50.46-91.35L44.38-59.28L45.90-59.28L45.90-59.28Q65.51-59.74 65.51-78.89ZM135.89-8.36L135.89-8.36L135.89-8.36Q131.18 3.04 116.13 3.04L116.13 3.04L116.13 3.04Q108.38 3.04 103.51-2.28L103.51-2.28L103.51-2.28Q99.41-6.99 99.41-11.70L99.41-11.70L99.41-11.70Q99.41-24.02 105.03-48.03L105.03-48.03L110.66-77.52L141.51-80.56L132.24-32.53L132.24-32.53Q129.66-21.28 129.66-17.33L129.66-17.33L129.66-17.33Q129.66-8.66 135.89-8.36ZM113.39-98.65L113.39-98.65L113.39-98.65Q113.39-104.58 118.33-107.77L118.33-107.77L118.33-107.77Q123.27-110.96 130.42-110.96L130.42-110.96L130.42-110.96Q137.56-110.96 141.89-107.77L141.89-107.77L141.89-107.77Q146.22-104.58 146.22-98.65L146.22-98.65L146.22-98.65Q146.22-92.72 141.44-89.68L141.44-89.68L141.44-89.68Q136.65-86.64 129.50-86.64L129.50-86.64L129.50-86.64Q122.36-86.64 117.88-89.68L117.88-89.68L117.88-89.68Q113.39-92.72 113.39-98.65ZM185.14-8.36L185.14-8.36L185.14-8.36Q180.42 3.04 165.38 3.04L165.38 3.04L165.38 3.04Q157.78 3.04 152.91-2.28L152.91-2.28L152.91-2.28Q148.96-6.69 148.96-11.70L148.96-11.70L148.96-11.70Q148.96-23.10 154.28-48.03L154.28-48.03L165.38-106.40L196.23-109.44L181.49-32.53L181.49-32.53Q178.90-21.28 178.90-17.33L178.90-17.33L178.90-17.33Q178.90-8.66 185.14-8.36ZM245.94-80.56L245.94-80.56L245.94-80.56Q251.41-80.56 255.66-79.34L255.66-79.34L255.66-79.34Q255.82-79.95 256.12-81.62L256.12-81.62L256.88-86.34L256.88-86.34Q257.49-89.38 258.40-94.39L258.40-94.39L260.83-106.40L291.08-109.44L274.21-21.28L274.21-21.28Q274.06-20.37 274.06-18.85L274.06-18.85L274.06-16.42L274.06-16.42Q274.06-13.07 275.73-10.56L275.73-10.56L275.73-10.56Q277.40-8.06 280.14-8.06L280.14-8.06L280.14-8.06Q277.10-0.91 267.82 2.13L267.82 2.13L267.82 2.13Q264.63 3.04 260.15 3.04L260.15 3.04L260.15 3.04Q255.66 3.04 251.56 0.68L251.56 0.68L251.56 0.68Q247.46-1.67 246.24-5.62L246.24-5.62L246.24-5.62Q243.81-1.67 238.94 0.68L238.94 0.68L238.94 0.68Q234.08 3.04 227.01 3.04L227.01 3.04L227.01 3.04Q219.94 3.04 214.09 1.22L214.09 1.22L214.09 1.22Q208.24-0.61 204.59-4.56L204.59-4.56L204.59-4.56Q197.90-12.31 197.90-29.94L197.90-29.94L197.90-29.94Q197.90-52.74 211.28-66.58L211.28-66.58L211.28-66.58Q224.66-80.56 245.94-80.56ZM244.87-71.44L244.87-71.44L244.87-71.44Q239.25-71.44 236.21-65.36L236.21-65.36L236.21-65.36Q233.17-59.28 230.05-44.23L230.05-44.23L230.05-44.23Q226.94-29.18 226.94-15.66L226.94-15.66L226.94-15.66Q226.94-6.38 232.41-6.38L232.41-6.38L232.41-6.38Q237.27-6.38 240.69-11.25L240.69-11.25L240.69-11.25Q244.11-16.11 245.48-24.17L245.48-24.17L253.69-68.70L253.69-68.70Q250.50-71.44 244.87-71.44ZM354.62-25.69L354.62-25.69L354.62-25.69Q358.42-23.10 358.42-17.40L358.42-17.40L358.42-17.40Q358.42-11.70 355.53-8.06L355.53-8.06L355.53-8.06Q352.64-4.41 347.93-1.98L347.93-1.98L347.93-1.98Q338.20 3.04 327.71 3.04L327.71 3.04L327.71 3.04Q317.22 3.04 311.07 0.76L311.07 0.76L311.07 0.76Q304.91-1.52 300.81-5.78L300.81-5.78L300.81-5.78Q292.75-13.83 292.75-28.58L292.75-28.58L292.75-28.58Q292.75-51.53 305.22-65.51L305.22-65.51L305.22-65.51Q318.59-80.56 341.85-80.56L341.85-80.56L341.85-80.56Q356.29-80.56 363.43-74.48L363.43-74.48L363.43-74.48Q368.75-69.92 368.75-62.47L368.75-62.47L368.75-62.47Q368.75-35.72 322.54-35.72L322.54-35.72L322.54-35.72Q321.94-31.77 321.94-28.42L321.94-28.42L321.94-28.42Q321.94-21.43 325.05-18.77L325.05-18.77L325.05-18.77Q328.17-16.11 333.94-16.11L333.94-16.11L333.94-16.11Q339.72-16.11 345.88-18.77L345.88-18.77L345.88-18.77Q352.03-21.43 354.62-25.69ZM323.61-42.26L323.61-42.26L323.61-42.26Q334.40-42.26 340.63-48.94L340.63-48.94L340.63-48.94Q346.86-55.33 346.86-65.51L346.86-65.51L346.86-65.51Q346.86-69.01 345.57-70.91L345.57-70.91L345.57-70.91Q344.28-72.81 341.70-72.81L341.70-72.81L341.70-72.81Q339.11-72.81 336.91-71.82L336.91-71.82L336.91-71.82Q334.70-70.83 332.42-67.49L332.42-67.49L332.42-67.49Q326.80-59.89 323.61-42.26ZM421.50-42.71L421.50-42.71L421.50-42.71Q426.97-52.44 426.97-62.32L426.97-62.32L426.97-62.32Q426.97-68.86 422.26-68.86L422.26-68.86L422.26-68.86Q418.61-68.86 414.81-62.62L414.81-62.62L414.81-62.62Q410.86-56.39 409.64-48.34L409.64-48.34L401.74 0L370.27 3.04L385.78-77.52L410.86-80.56L408.12-65.21L408.12-65.21Q415.57-80.56 432.29-80.56L432.29-80.56L432.29-80.56Q441.10-80.56 445.89-76L445.89-76L445.89-76Q450.68-71.44 450.68-62.09L450.68-62.09L450.68-62.09Q450.68-52.74 444.52-46.82L444.52-46.82L444.52-46.82Q438.37-40.89 427.88-40.89L427.88-40.89L427.88-40.89Q423.32-40.89 421.50-42.71ZM451.14-7.30L451.14-7.30L469.98-106.40L500.84-109.44L496.13-86.18L496.13-86.18Q494.46-79.04 492.33-74.02L492.33-74.02L492.33-74.02Q495.67-78.28 502.97-79.95L502.97-79.95L502.97-79.95Q505.10-80.56 507.68-80.56L507.68-80.56L507.68-80.56Q521.82-80.56 529.57-71.97L529.57-71.97L529.57-71.97Q537.32-63.38 537.32-46.82L537.32-46.82L537.32-46.82Q537.32-25.23 525.01-11.70L525.01-11.70L525.01-11.70Q511.78 3.04 487.77 3.04L487.77 3.04L487.77 3.04Q471.20 3.04 458.74-2.43L458.74-2.43L458.74-2.43Q454.33-4.41 451.14-7.30ZM489.74-53.20L481.69-8.66L481.69-8.66Q484.88-5.93 488.83-5.93L488.83-5.93L488.83-5.93Q492.78-5.93 495.06-7.45L495.06-7.45L495.06-7.45Q497.34-8.97 499.02-12.01L499.02-12.01L499.02-12.01Q503.58-20.22 507.22-45.30L507.22-45.30L507.22-45.30Q508.29-52.44 508.29-59.58L508.29-59.58L508.29-59.58Q508.29-66.73 506.69-69.01L506.69-69.01L506.69-69.01Q505.10-71.29 502.06-71.29L502.06-71.29L502.06-71.29Q492.78-71.29 489.74-53.20L489.74-53.20ZM608-25.69L608-25.69L608-25.69Q611.80-23.10 611.80-17.40L611.80-17.40L611.80-17.40Q611.80-11.70 608.91-8.06L608.91-8.06L608.91-8.06Q606.02-4.41 601.31-1.98L601.31-1.98L601.31-1.98Q591.58 3.04 581.10 3.04L581.10 3.04L581.10 3.04Q570.61 3.04 564.45 0.76L564.45 0.76L564.45 0.76Q558.30-1.52 554.19-5.78L554.19-5.78L554.19-5.78Q546.14-13.83 546.14-28.58L546.14-28.58L546.14-28.58Q546.14-51.53 558.60-65.51L558.60-65.51L558.60-65.51Q571.98-80.56 595.23-80.56L595.23-80.56L595.23-80.56Q609.67-80.56 616.82-74.48L616.82-74.48L616.82-74.48Q622.14-69.92 622.14-62.47L622.14-62.47L622.14-62.47Q622.14-35.72 575.93-35.72L575.93-35.72L575.93-35.72Q575.32-31.77 575.32-28.42L575.32-28.42L575.32-28.42Q575.32-21.43 578.44-18.77L578.44-18.77L578.44-18.77Q581.55-16.11 587.33-16.11L587.33-16.11L587.33-16.11Q593.10-16.11 599.26-18.77L599.26-18.77L599.26-18.77Q605.42-21.43 608-25.69ZM576.99-42.26L576.99-42.26L576.99-42.26Q587.78-42.26 594.02-48.94L594.02-48.94L594.02-48.94Q600.25-55.33 600.25-65.51L600.25-65.51L600.25-65.51Q600.25-69.01 598.96-70.91L598.96-70.91L598.96-70.91Q597.66-72.81 595.08-72.81L595.08-72.81L595.08-72.81Q592.50-72.81 590.29-71.82L590.29-71.82L590.29-71.82Q588.09-70.83 585.81-67.49L585.81-67.49L585.81-67.49Q580.18-59.89 576.99-42.26ZM674.88-42.71L674.88-42.71L674.88-42.71Q680.35-52.44 680.35-62.32L680.35-62.32L680.35-62.32Q680.35-68.86 675.64-68.86L675.64-68.86L675.64-68.86Q671.99-68.86 668.19-62.62L668.19-62.62L668.19-62.62Q664.24-56.39 663.02-48.34L663.02-48.34L655.12 0L623.66 3.04L639.16-77.52L664.24-80.56L661.50-65.21L661.50-65.21Q668.95-80.56 685.67-80.56L685.67-80.56L685.67-80.56Q694.49-80.56 699.28-76L699.28-76L699.28-76Q704.06-71.44 704.06-62.09L704.06-62.09L704.06-62.09Q704.06-52.74 697.91-46.82L697.91-46.82L697.91-46.82Q691.75-40.89 681.26-40.89L681.26-40.89L681.26-40.89Q676.70-40.89 674.88-42.71ZM717.29-63.54L717.29-63.54L717.29-63.54Q722.46-70.83 730.28-75.70L730.28-75.70L730.28-75.70Q738.11-80.56 747.69-80.56L747.69-80.56L747.69-80.56Q757.26-80.56 761.82-77.52L761.82-77.52L791.62-80.56L781.28-22.19L781.28-22.19Q775.96 7.60 764.71 19.30L764.71 19.30L764.71 19.30Q753.92 30.40 732.94 30.40L732.94 30.40L732.94 30.40Q716.98 30.40 707.86 25.38L707.86 25.38L707.86 25.38Q698.74 20.37 698.74 12.01L698.74 12.01L698.74 12.01Q698.74 5.78 703.46 2.20L703.46 2.20L703.46 2.20Q708.17-1.37 715.46-1.37L715.46-1.37L715.46-1.37Q721.85-1.37 726.71 1.52L726.71 1.52L726.71 1.52Q729.60 3.04 730.97 5.17L730.97 5.17L730.97 5.17Q727.47 8.21 727.47 13.22L727.47 13.22L727.47 13.22Q727.47 19.76 733.55 19.76L733.55 19.76L733.55 19.76Q743.74 19.76 749.51-4.26L749.51-4.26L749.51-4.26Q751.18-10.79 752.55-17.33L752.55-17.33L752.55-17.33Q745.71-8.97 730.21-8.97L730.21-8.97L730.21-8.97Q719.42-8.97 713.18-14.14L713.18-14.14L713.18-14.14Q706.95-19.30 706.95-31.46L706.95-31.46L706.95-31.46Q706.95-39.06 709.54-47.65L709.54-47.65L709.54-47.65Q712.12-56.24 717.29-63.54ZM737.05-31.01L737.05-31.01L737.05-31.01Q737.05-20.67 742.37-20.67L742.37-20.67L742.37-20.67Q746.02-20.67 749.51-24.62L749.51-24.62L749.51-24.62Q752.25-27.82 753.31-32.53L753.31-32.53L761.06-71.59L761.06-71.59Q760.30-71.74 759.54-72.05L759.54-72.05L759.54-72.05Q758.02-72.66 756.05-72.66L756.05-72.66L756.05-72.66Q746.78-72.66 741.30-57.46L741.30-57.46L741.30-57.46Q737.05-45.60 737.05-31.01ZM888.29-101.38L888.29-101.38L888.29-101.38Q925.53-101.38 925.53-75.09L925.53-75.09L925.53-75.09Q925.53-60.65 916.26-51.98L916.26-51.98L916.26-51.98Q907.14-43.32 891.18-43.32L891.18-43.32L891.18-43.32Q883.73-43.32 877.95-47.58L877.95-47.58L877.95-47.58Q875.22-49.40 873.39-51.83L873.39-51.83L873.39-51.83Q884.49-51.83 890.34-58.60L890.34-58.60L890.34-58.60Q896.19-65.36 896.19-78.58L896.19-78.58L896.19-78.58Q896.19-91.81 883.12-91.81L883.12-91.81L879.47-91.81L879.47-91.81Q878.56-91.81 877.80-91.66L877.80-91.66L860.32 0L827.34 0L846.03-99.56L846.03-99.56Q862.30-101.08 871.72-101.23L871.72-101.23L871.72-101.23Q881.14-101.38 888.29-101.38ZM959.42 3.04L959.42 3.04L959.42 3.04Q925.98 3.04 925.98-28.42L925.98-28.42L925.98-28.42Q925.98-50.77 938.30-65.21L938.30-65.21L938.30-65.21Q951.37-80.56 974.02-80.56L974.02-80.56L974.02-80.56Q990.43-80.56 998.79-72.96L998.79-72.96L998.79-72.96Q1007.15-65.36 1007.15-49.40L1007.15-49.40L1007.15-49.40Q1007.15-25.08 994.08-10.94L994.08-10.94L994.08-10.94Q981.31 3.04 959.42 3.04ZM963.38-63.08L963.38-63.08L963.38-63.08Q961.55-58.98 960.11-52.82L960.11-52.82L960.11-52.82Q958.66-46.66 956.84-36.94L956.84-36.94L956.84-36.94Q955.02-27.21 955.02-15.20L955.02-15.20L955.02-15.20Q955.02-11.25 956.31-8.66L956.31-8.66L956.31-8.66Q957.60-6.08 961.10-6.08L961.10-6.08L961.10-6.08Q964.59-6.08 966.80-7.75L966.80-7.75L966.80-7.75Q969.00-9.42 970.67-13.38L970.67-13.38L970.67-13.38Q973.71-20.37 976.14-33.36L976.14-33.36L976.14-33.36Q978.58-46.36 978.80-51.98L978.80-51.98L978.80-51.98Q979.03-57.61 979.03-61.79L979.03-61.79L979.03-61.79Q979.03-65.97 977.82-68.70L977.82-68.70L977.82-68.70Q976.60-71.44 973.18-71.44L973.18-71.44L973.18-71.44Q969.76-71.44 967.48-69.31L967.48-69.31L967.48-69.31Q965.20-67.18 963.38-63.08ZM1064-80.56L1064-80.56L1064-80.56Q1069.47-80.56 1073.73-79.34L1073.73-79.34L1073.73-79.34Q1073.88-79.95 1074.18-81.62L1074.18-81.62L1074.94-86.34L1074.94-86.34Q1075.55-89.38 1076.46-94.39L1076.46-94.39L1078.90-106.40L1109.14-109.44L1092.27-21.28L1092.27-21.28Q1092.12-20.37 1092.12-18.85L1092.12-18.85L1092.12-16.42L1092.12-16.42Q1092.12-13.07 1093.79-10.56L1093.79-10.56L1093.79-10.56Q1095.46-8.06 1098.20-8.06L1098.20-8.06L1098.20-8.06Q1095.16-0.91 1085.89 2.13L1085.89 2.13L1085.89 2.13Q1082.70 3.04 1078.21 3.04L1078.21 3.04L1078.21 3.04Q1073.73 3.04 1069.62 0.68L1069.62 0.68L1069.62 0.68Q1065.52-1.67 1064.30-5.62L1064.30-5.62L1064.30-5.62Q1061.87-1.67 1057.01 0.68L1057.01 0.68L1057.01 0.68Q1052.14 3.04 1045.08 3.04L1045.08 3.04L1045.08 3.04Q1038.01 3.04 1032.16 1.22L1032.16 1.22L1032.16 1.22Q1026.30-0.61 1022.66-4.56L1022.66-4.56L1022.66-4.56Q1015.97-12.31 1015.97-29.94L1015.97-29.94L1015.97-29.94Q1015.97-52.74 1029.34-66.58L1029.34-66.58L1029.34-66.58Q1042.72-80.56 1064-80.56ZM1062.94-71.44L1062.94-71.44L1062.94-71.44Q1057.31-71.44 1054.27-65.36L1054.27-65.36L1054.27-65.36Q1051.23-59.28 1048.12-44.23L1048.12-44.23L1048.12-44.23Q1045-29.18 1045-15.66L1045-15.66L1045-15.66Q1045-6.38 1050.47-6.38L1050.47-6.38L1050.47-6.38Q1055.34-6.38 1058.76-11.25L1058.76-11.25L1058.76-11.25Q1062.18-16.11 1063.54-24.17L1063.54-24.17L1071.75-68.70L1071.75-68.70Q1068.56-71.44 1062.94-71.44Z" fill="#444"></path></g></g><style>text {
  font-size: 64px;
  font-family: Arial Black;
  dominant-baseline: central;
  text-anchor: middle;
}</style></svg>